<svg width="500" height="509" viewBox="0 0 500 509" fill="none" xmlns="http://www.w3.org/2000/svg">
<path d="M62.389 127.826C60.8287 92.0327 63.8891 77.3257 72.889 55.8257C80.5465 37.5329 85.8891 32.3257 99.889 21.8257C113.889 11.3257 140.389 7.32571 158.389 11.8257C174.389 13.3257 213.389 35.8257 224.389 43.8257C235.389 51.8257 246.889 55.8257 252.389 55.8257C257.889 55.8257 264.389 55.3109 276.889 45.3183C289.389 35.3257 329.889 13.3257 348.889 11.8257C367.889 10.3257 380.389 12.3257 395.889 21.8257C411.389 31.3257 417.431 39.3257 425.889 53.8257C434.347 68.3257 440.203 87.3257 436.889 127.826M62.389 127.826C64.3321 148.346 74.3891 182.826 106.389 253.326C109.889 265.826 109.389 273.326 109.389 276.326C114.389 424.326 124.195 465.826 127.889 475.326C134.889 493.326 143.354 498.592 158.389 498.826C173.735 499.064 183.5 491.826 191.5 475.326C205.476 446.5 220.389 319.326 230.389 306.826C240.389 294.326 249.389 295.826 249.389 295.826C249.389 295.826 257.889 293.326 270.389 306.826C282.889 320.326 310.889 461.326 315.889 475.326C320.889 489.326 326.889 498.826 345.389 498.826C363.889 498.826 370.889 485.326 372.889 475.326C374.889 465.326 392.889 387.826 392.889 274.826C394.304 263.845 394.182 262.272 395.889 253.326C405.553 202.68 433.575 168.326 436.889 127.826M62.389 127.826H158.389V182.5H348.889V127.826H436.889" stroke="black" stroke-width="20"/>
</svg>
