<svg width="500" viewBox="0 0 500 509" fill="none" xmlns="http://www.w3.org/2000/svg">
  <path
    d="M99.889 21.8257C113.889 11.3257 140.389 7.32571 158.389 11.8257C174.389 13.3257 213.389 35.8257 224.389 43.8257C235.389 51.8257 246.889 55.8257 252.389 55.8257C257.889 55.8257 264.389 55.3109 276.889 45.3183C289.389 35.3257 329.889 13.3257 348.889 11.8257C367.889 10.3257 380.389 12.3257 395.889 21.8257C411.389 31.3257 417.431 39.3257 425.889 53.8257C434.347 68.3257 440.203 87.3257 436.889 127.826C433.575 168.326 405.553 202.68 395.889 253.326C394.182 262.272 394.304 263.845 392.889 274.826C392.889 387.826 374.889 465.326 372.889 475.326C370.889 485.326 363.889 498.826 345.389 498.826C326.889 498.826 320.889 489.326 315.889 475.326C310.889 461.326 282.889 320.326 270.389 306.826C257.889 293.326 249.389 295.826 249.389 295.826C249.389 295.826 240.389 294.326 230.389 306.826C220.389 319.326 205.476 446.5 191.5 475.326C183.5 491.826 173.735 499.064 158.389 498.826C143.354 498.592 134.889 493.326 127.889 475.326C124.195 465.826 114.389 424.326 109.389 276.326C109.389 273.326 109.889 265.826 106.389 253.326C74.3891 182.826 64.3321 148.346 62.389 127.826C60.8287 92.0327 63.8891 77.3257 72.889 55.8257C80.5465 37.5329 85.8891 32.3257 99.889 21.8257Z"
    stroke="currentColor" stroke-width="20" />
  <path
    d="M340.354 66.6043C329.902 109.485 311.875 121.275 276 128.64C315.064 140.979 330.337 160.226 340.354 191.565C352.735 151.301 367.072 137.964 403.279 128.64C367.813 118.637 352.662 104.573 340.354 66.6043Z"
    stroke="currentColor" stroke-width="15" />
  <path
    d="M287.752 190.891C281.945 214.714 271.931 221.264 252 225.355C273.702 232.211 282.187 242.904 287.752 260.314C294.631 237.945 302.596 230.536 322.711 225.355C303.007 219.798 294.59 211.985 287.752 190.891Z"
    stroke="currentColor" stroke-width="12" />
</svg>