<svg viewBox="0 0 500 509" fill="none" xmlns="http://www.w3.org/2000/svg">
  <path
    d="M145 253.326H106.389C74.3891 182.826 64.3321 148.346 62.389 127.826C60.8287 92.0327 63.8891 77.3257 72.889 55.8257C80.5465 37.5329 85.8891 32.3257 99.889 21.8257C113.889 11.3257 140.389 7.32571 158.389 11.8257C174.389 13.3257 213.389 35.8257 224.389 43.8257C235.389 51.8257 246.889 55.8257 252.389 55.8257C257.889 55.8257 264.389 55.3109 276.889 45.3183C289.389 35.3257 329.889 13.3257 348.889 11.8257C367.889 10.3257 380.389 12.3257 395.889 21.8257C411.389 31.3257 417.431 39.3257 425.889 53.8257C434.347 68.3257 440.203 87.3257 436.889 127.826C433.575 168.326 407 227 395.889 253.326H365M145 253.326V291H181H191.5M145 253.326H358.5H365M365 253.326V291H326H311.5M191.5 291H202H294H311.5M191.5 291V434.5L224.389 499H276.889L311.5 434.5V291"
    stroke="currentColor" stroke-width="20" />
  <path d="M163.5 327.5H339.5" stroke="currentColor" stroke-width="20" />
  <path d="M164 368H340" stroke="currentColor" stroke-width="20" />
  <path d="M164 410H340" stroke="currentColor" stroke-width="20" />
</svg>