<svg viewBox="0 0 500 509" fill="none" xmlns="http://www.w3.org/2000/svg">
  <path
    d="M118.874 66.717C131.39 57.2014 155.081 53.5764 171.174 57.6545C185.478 59.0139 220.345 79.4044 230.179 86.6543C240.013 93.9042 250.295 97.5292 255.212 97.5292C260.129 97.5292 265.94 97.0627 277.115 88.007C288.291 78.9513 324.498 59.0139 341.485 57.6545C358.471 56.2952 369.646 58.1077 383.504 66.717C397.361 75.3263 402.762 82.5762 410.324 95.7167C417.886 108.857 423.121 126.076 420.159 162.779C417.196 199.482 392.143 230.614 383.504 276.512C381.978 284.619 382.086 286.046 380.822 295.996C380.822 398.402 364.729 468.636 362.941 477.698C361.153 486.76 354.895 498.995 338.356 498.995C321.816 498.995 316.452 490.386 311.982 477.698C307.512 465.011 282.479 337.23 271.304 324.996C260.129 312.762 252.53 315.027 252.53 315.027C252.53 315.027 244.484 313.668 235.543 324.996C226.603 336.324 213.271 451.575 200.776 477.698C193.624 492.651 184.893 499.211 171.174 498.995C157.733 498.783 150.164 494.01 143.906 477.698C140.603 469.089 131.837 431.48 127.367 297.356C127.367 294.637 127.814 287.84 124.685 276.512C96.0761 212.622 87.085 181.375 85.3478 162.779C83.9528 130.342 86.6889 117.013 94.735 97.5292C101.581 80.9515 106.357 76.2325 118.874 66.717Z"
    stroke="currentColor" stroke-width="20" />
  <path
    d="M18 202H64.8978C60.4709 184.069 58.3123 170.772 57.5032 160.316C55.8763 114.653 59.0671 95.8906 68.4505 68.462C76.4341 45.125 82.0043 38.482 96.6007 25.0866C111.197 11.6913 138.826 6.58828 157.593 12.3291C174.274 14.2428 214.936 42.9471 226.405 53.1531C237.873 63.359 249.863 68.462 255.597 68.462C261.332 68.462 268.109 67.8053 281.141 55.0573C294.174 42.3092 336.399 14.2428 356.208 12.3291C376.018 10.4155 389.05 12.967 405.211 25.0866C421.371 37.2062 427.67 47.4122 436.489 65.9105C445.307 84.4089 451.412 108.648 447.957 160.316C447.001 174.609 444.074 188.301 440.127 202H483"
    stroke="currentColor" stroke-width="20" />
</svg>